<?xml version="1.0" standalone="no"?>
<!DOCTYPE svg PUBLIC "-//W3C//DTD SVG 20010904//EN"
 "http://www.w3.org/TR/2001/REC-SVG-20010904/DTD/svg10.dtd">
<svg version="1.0" xmlns="http://www.w3.org/2000/svg"
 width="224.000000pt" height="225.000000pt" viewBox="0 0 224.000000 225.000000"
 preserveAspectRatio="xMidYMid meet">
<metadata>
Created by potrace 1.15, written by Peter Selinger 2001-2017
</metadata>
<g transform="translate(0.000000,225.000000) scale(0.100000,-0.100000)"
fill="#000000" stroke="none">
<path d="M930 2169 c-41 -4 -83 -6 -93 -3 -26 8 -221 -53 -297 -92 -181 -95
-323 -252 -376 -418 -27 -86 -28 -125 -8 -405 l7 -84 -32 6 c-43 9 -71 -19
-71 -71 0 -58 20 -152 40 -192 29 -56 40 -63 133 -77 42 -6 44 -10 99 -163 17
-47 39 -97 49 -111 10 -14 68 -68 129 -120 174 -148 347 -241 552 -294 84 -22
135 -8 265 69 265 157 430 309 492 451 12 27 31 60 43 72 20 21 77 40 105 35
18 -4 112 108 140 166 22 45 25 61 19 113 -3 33 -10 69 -16 79 -15 29 -66 26
-107 -6 -32 -24 -33 -24 -33 -4 0 11 9 62 21 113 17 76 20 114 16 217 -4 111
-8 134 -37 205 -17 44 -37 87 -45 95 -7 8 -20 29 -29 47 -22 44 -118 138 -174
170 -26 15 -72 44 -103 65 -74 49 -169 81 -354 118 -153 31 -204 33 -335 19z
m730 -560 c-36 -33 -78 -67 -94 -76 -44 -23 -18 -38 67 -38 55 0 82 5 115 22
51 27 56 12 7 -19 -19 -13 -35 -26 -35 -30 0 -13 49 -20 85 -14 l35 7 0 -41
c0 -27 12 -65 37 -113 45 -90 54 -140 41 -242 -6 -44 -11 -87 -12 -95 -11 -83
-51 -179 -121 -290 -14 -22 -25 -45 -25 -52 -1 -47 -187 -220 -371 -347 -153
-106 -203 -131 -253 -131 -84 0 -309 87 -394 151 -31 24 -73 55 -93 69 -61 43
-205 170 -228 201 -12 16 -30 55 -41 87 -28 87 -68 183 -83 201 -34 40 -68
157 -69 232 0 41 5 53 31 80 44 43 60 79 77 167 8 41 17 78 19 81 3 2 35 -1
73 -8 100 -19 400 -26 517 -12 262 31 553 125 705 227 36 24 67 43 70 43 3 0
-24 -27 -60 -60z m-1510 -472 c8 -7 24 -23 35 -36 l20 -23 -32 19 c-30 17 -33
17 -49 1 -12 -12 -15 -25 -10 -52 9 -46 23 -47 18 -1 -3 26 0 36 13 42 26 9
48 -25 41 -65 -6 -41 9 -76 41 -97 25 -17 29 -61 6 -59 -7 1 -27 2 -43 3 -39
1 -60 36 -90 147 -18 68 -21 89 -12 109 12 27 38 32 62 12z m1937 -34 c22 -89
-5 -176 -81 -259 -30 -33 -51 -46 -79 -51 l-38 -6 11 29 c6 16 23 41 36 55 21
22 24 33 19 60 -5 28 -1 40 25 72 31 37 78 53 67 22 -4 -8 -2 -17 3 -20 6 -4
10 7 10 23 0 27 -14 42 -40 42 -5 0 -22 -12 -39 -26 -35 -29 -39 -25 -14 12
18 28 80 74 100 74 7 0 16 -12 20 -27z"/>
<path d="M519 1306 c-77 -31 -119 -63 -135 -102 -8 -19 -18 -34 -23 -34 -9 0
-24 -30 -18 -36 2 -2 18 3 36 12 23 11 65 16 154 17 114 2 144 0 253 -18 l42
-7 4 36 c6 51 -26 94 -94 129 -70 35 -140 36 -219 3z m238 -41 c31 -36 51 -80
42 -90 -3 -2 -23 -1 -46 2 -35 5 -42 9 -47 33 -5 26 -70 79 -82 67 -3 -2 10
-14 29 -25 38 -22 56 -62 28 -62 -9 0 -24 13 -34 29 -13 23 -22 27 -43 23 -15
-3 -29 -13 -31 -23 -5 -18 -32 -34 -42 -24 -3 4 2 20 11 36 9 16 13 29 8 29
-14 0 -43 -47 -36 -59 5 -8 -104 -34 -112 -26 -2 2 4 17 12 33 11 21 38 42 88
67 68 34 78 36 147 33 72 -3 75 -5 108 -43z"/>
<path d="M1470 1271 c-103 -21 -160 -97 -116 -156 13 -18 17 -18 67 -5 70 19
192 16 249 -5 25 -9 59 -19 75 -22 17 -3 36 -10 43 -15 8 -8 12 -6 12 6 0 9
-5 16 -10 16 -6 0 -21 24 -33 53 -50 112 -149 156 -287 128z m194 -58 c35 -25
85 -89 75 -97 -2 -2 -19 1 -37 6 -24 6 -36 17 -43 38 -11 30 -46 59 -80 65
-28 6 -23 -12 6 -19 27 -7 59 -48 53 -67 -2 -7 -17 0 -36 19 -32 31 -68 34
-79 6 -7 -18 -33 -18 -33 0 0 7 7 19 15 26 8 7 15 18 15 24 -1 6 -17 -7 -36
-29 -21 -24 -51 -44 -74 -51 -36 -11 -40 -10 -46 8 -8 28 21 67 69 89 63 30
176 21 231 -18z"/>
<path d="M892 1009 c-28 -53 24 -107 85 -90 16 5 39 4 53 -1 36 -13 123 -13
148 1 16 8 28 9 41 1 30 -16 53 -12 85 13 26 21 28 26 18 53 -9 25 -11 26 -11
7 -1 -23 -46 -61 -59 -49 -3 4 0 11 8 16 35 21 -6 22 -74 0 -58 -18 -85 -21
-127 -16 -30 4 -62 7 -71 7 -9 0 -20 9 -23 20 -4 10 -11 19 -16 19 -6 0 -7 -9
-4 -21 6 -17 3 -20 -12 -17 -13 2 -19 15 -23 42 -5 39 -5 39 -18 15z"/>
<path d="M751 925 c-11 -20 -21 -40 -21 -44 0 -11 -62 -67 -90 -81 -15 -8 -20
-15 -12 -18 7 -2 24 3 37 12 13 9 29 16 35 16 19 0 49 -86 60 -172 16 -119 35
-163 88 -204 25 -19 57 -37 71 -39 14 -3 53 -14 86 -25 59 -19 132 -21 210 -4
54 12 131 54 153 84 35 47 68 131 81 205 12 69 37 135 52 135 4 0 22 -12 41
-27 30 -26 30 -24 -9 22 -23 28 -49 67 -58 89 -21 49 -30 40 -15 -15 11 -41
11 -45 -13 -65 -14 -12 -70 -37 -124 -55 -91 -31 -107 -33 -228 -34 l-130 0
-96 49 c-65 33 -102 58 -113 77 -16 27 -16 31 4 75 25 57 20 68 -9 19z m152
-218 c46 -24 190 -41 272 -33 69 7 155 34 213 68 45 25 56 22 47 -15 -5 -18
-23 -33 -69 -56 -185 -91 -376 -85 -526 17 -70 48 -80 58 -80 84 0 15 8 12 53
-14 28 -18 69 -40 90 -51z m13 -245 c76 -38 119 -44 229 -34 62 6 106 17 142
35 53 25 77 21 51 -10 -21 -26 -111 -62 -184 -73 -73 -12 -138 -6 -171 16 -12
8 -29 14 -38 14 -31 0 -96 41 -115 73 -28 45 -25 66 4 34 13 -14 50 -39 82
-55z"/>
</g>
</svg>
